Coordinates
version=1
nRows=12
nColumns=42
inDegrees=yes

Units are S.I. units (second, meters, Newtons, ...)
If the header above contains a line with 'inDegrees', this indicates whether rotational values are in degrees (yes) or radians (no).

endheader
time	pelvis_tilt	pelvis_list	pelvis_rotation	pelvis_tx	pelvis_ty	pelvis_tz	hip_flexion_r	hip_adduction_r	hip_rotation_r	knee_angle_r	knee_adduction_r	knee_angle_r_beta	ankle_angle_r	subtalar_angle_r	mtp_angle_r	hip_flexion_l	hip_adduction_l	hip_rotation_l	knee_angle_l	knee_adduction_l	knee_angle_l_beta	ankle_angle_l	subtalar_angle_l	mtp_angle_l	lumbar_extension	lumbar_bending	lumbar_rotation	arm_flex_r	arm_add_r	arm_rot_r	elbow_flex_r	pro_sup_r	wrist_flex_r	wrist_dev_r	arm_flex_l	arm_add_l	arm_rot_l	elbow_flex_l	pro_sup_l	wrist_flex_l	wrist_dev_l
      1.68000000	     19.20705230	      3.84933180	      5.31119020	     -0.38070784	      0.89486980	     -0.02859774	      7.46887564	     -4.39483668	    -26.93345365	     37.91523246	     -6.13823969	      0.66174564	     16.34613353	      4.97237475	     -7.50973927	    -23.74761930	     -1.78784667	    -19.13624972	     49.88119821	    -10.43574420	      0.87059114	      2.37760454	      3.89991737	     -7.50973927	    -40.89640367	     -0.93902129	     -4.71350177	     -2.58283871	     -6.72920964	    -39.43770385	     25.33187460	     90.00000001	      0.00000000	      0.00000000	     10.25270183	     -6.55124342	    -30.01974499	     37.56642984	     90.00000001	      0.00000000	      0.00000000
      1.69000000	     19.34391759	      3.79197739	      5.19627998	     -0.37192214	      0.89597714	     -0.02720149	      6.65509409	     -4.24283684	    -27.73030775	     37.82829005	     -6.44668072	      0.66022821	     17.19588192	      6.10642783	     -7.50911843	    -22.76306179	     -1.67935719	    -18.20333905	     51.95263099	    -10.35127774	      0.90674447	      2.04535543	      0.22038436	     -7.50911843	    -41.08236295	     -0.90595664	     -4.56992538	     -2.11675364	     -6.93733196	    -38.58514330	     25.78770908	     90.00000001	      0.00000000	      0.00000000	      9.87876550	     -6.40906493	    -30.30605332	     37.34444345	     90.00000001	      0.00000000	      0.00000000
      1.70000000	     19.47073951	      3.76342020	      5.09134555	     -0.36335560	      0.89709967	     -0.02585629	      5.84197774	     -4.11081198	    -28.38517149	     37.71586569	     -6.69429272	      0.65826604	     17.97498657	      7.07562736	     -7.50856826	    -21.68695220	     -1.51883858	    -17.26298694	     53.96338608	    -10.20479212	      0.94183876	      2.02283006	     -3.48342943	     -7.50856826	    -41.28193213	     -0.89423130	     -4.43546767	     -1.61598663	     -7.13915369	    -37.66993948	     26.28358438	     90.00000001	      0.00000000	      0.00000000	      9.54138164	     -6.26916206	    -30.52650835	     37.11898405	     90.00000001	      0.00000000	      0.00000000
      1.71000000	     19.60451913	      3.74499437	      5.00694180	     -0.35499698	      0.89825621	     -0.02456815	      4.99161880	     -3.98009178	    -28.87076826	     37.54061036	     -6.82471407	      0.65520725	     18.66162317	      7.82654309	     -7.50794872	    -20.54361267	     -1.35501412	    -16.40620898	     55.87192595	    -10.04525249	      0.97514907	      2.17259365	     -7.06221808	     -7.50794872	    -41.50699679	     -0.88758254	     -4.31489750	     -1.11823351	     -7.35676347	    -36.50500926	     26.84391444	     90.00000001	      0.00000000	      0.00000000	      9.23924031	     -6.13389195	    -30.73883827	     36.89517288	     90.00000001	      0.00000000	      0.00000000
      1.72000000	     19.71817843	      3.75484744	      4.95043945	     -0.34682429	      0.89941531	     -0.02333426	      4.14262819	     -3.87155125	    -29.10681947	     37.35251771	     -6.80219698	      0.65192442	     19.26647642	      8.27536837	     -7.50746480	    -19.31410687	     -1.15391319	    -15.50824238	     57.66750111	     -9.81221480	      1.00648777	      2.66366323	    -10.30105199	     -7.50746480	    -41.72597804	     -0.89673055	     -4.23056527	     -0.56930582	     -7.54872889	    -35.43892283	     27.41706811	     90.00000001	      0.00000000	      0.00000000	      8.95147831	     -6.01984648	    -30.87166516	     36.65822763	     90.00000001	      0.00000000	      0.00000000
      1.73000000	     19.88301660	      3.71484894	      4.89715585	     -0.33876494	      0.90060533	     -0.02215026	      3.20477267	     -3.66696804	    -29.10959798	     37.08278415	     -6.64897621	      0.64721668	     19.68073381	      8.29291764	     -7.50733670	    -18.05187773	     -1.09876733	    -15.51326396	     59.24349872	    -10.14747100	      1.03399411	      3.82082365	    -11.65748478	     -7.50733670	    -42.00272815	     -0.85263232	     -4.11467052	      0.14568986	     -7.70350646	    -35.08197913	     27.87530301	     90.00000001	      0.00000000	      0.00000000	      8.62178840	     -5.91031065	    -30.87017199	     36.53053690	     90.00000001	      0.00000000	      0.00000000
      1.74000000	     19.94765175	      3.79881021	      4.85940785	     -0.33099349	      0.90176232	     -0.02095241	      2.40898634	     -3.62658491	    -29.03380951	     36.88548586	     -6.48608909	      0.64377317	     20.23572332	      8.52893493	     -7.50696730	    -16.68470591	     -0.75472302	    -13.97010923	     60.80211819	     -9.32941118	      1.06119715	      4.29551859	    -15.12483122	     -7.50696730	    -42.20135400	     -0.95267988	     -4.01902378	      0.68004279	     -7.89150080	    -33.70319502	     28.53372157	     90.00000001	      0.00000000	      0.00000000	      8.49697406	     -5.83630754	    -30.96056334	     36.23811710	     90.00000001	      0.00000000	      0.00000000
      1.75000000	     20.11256148	      3.80322395	      4.83832360	     -0.32322215	      0.90298513	     -0.01984644	      1.44221328	     -3.49032976	    -28.94565209	     36.56447529	     -6.21843112	      0.63817048	     20.53494959	      8.51410999	     -7.50686578	    -15.34376487	     -0.61455967	    -13.89782267	     62.01964813	     -9.60974221	      1.08244706	      5.40808294	    -15.99526250	     -7.50686578	    -42.49070378	     -0.95164556	     -3.92837428	      1.44746559	     -8.01041687	    -33.30427047	     29.01013646	     90.00000001	      0.00000000	      0.00000000	      8.24766063	     -5.76296856	    -30.94879568	     36.13389153	     90.00000001	      0.00000000	      0.00000000
      1.76000000	     20.21557781	      3.83113095	      4.77054675	     -0.31564407	      0.90411681	     -0.01870970	      0.58308961	     -3.33858871	    -28.72428594	     36.23902999	     -6.02050032	      0.63249039	     20.93497800	      8.50837978	     -7.50675333	    -13.92099257	     -0.40612209	    -13.36429077	     63.12080716	     -9.41566809	      1.10166591	      6.59880173	    -16.98586827	     -7.50675333	    -42.72397020	     -1.01037351	     -3.81597576	      2.21133595	     -8.16021231	    -32.73619381	     29.54004173	     90.00000001	      0.00000000	      0.00000000	      8.04335481	     -5.66586632	    -30.93059330	     35.99117425	     90.00000001	      0.00000000	      0.00000000
      1.77000000	     20.26012240	      3.86108147	      4.72442479	     -0.30823002	      0.90519814	     -0.01760290	     -0.20457506	     -3.19232921	    -28.48377963	     35.90931705	     -5.80149632	      0.62673581	     21.34316944	      8.50091094	     -7.50661530	    -12.42820156	     -0.15392107	    -12.38167520	     64.05581703	     -8.82454750	      1.11798491	      7.73636960	    -17.70713691	     -7.50661530	    -42.91270628	     -1.07043473	     -3.69918679	      2.94937500	     -8.30352085	    -31.89741626	     30.14803314	     90.00000001	      0.00000000	      0.00000000	      7.85728398	     -5.60586408	    -30.91369433	     35.80691216	     90.00000001	      0.00000000	      0.00000000
      1.78000000	     20.33433804	      3.96269053	      4.68088500	     -0.30096810	      0.90626244	     -0.01654887	     -0.99592190	     -3.16033132	    -28.40577995	     35.64036283	     -5.66173109	      0.62204168	     21.59956351	      8.55100819	     -7.50574409	    -10.96445196	      0.21077225	    -11.03258259	     64.80529371	     -7.94331420	      1.13106575	      8.56101311	    -18.13319455	     -7.50574409	    -43.15237187	     -1.20979123	     -3.55907194	      2.90000850	     -8.99144734	    -26.91047905	     31.51674062	     90.00000001	      0.00000000	      0.00000000	      7.89678768	     -5.52998763	    -31.08166138	     35.45992727	     90.00000001	      0.00000000	      0.00000000
      1.79000000	     20.42483030	      4.05201492	      4.59694717	     -0.29362331	      0.90728117	     -0.01551037	     -1.84733176	     -3.12325535	    -28.35954636	     35.28907402	     -5.49559331	      0.61591053	     21.75543756	      8.56871059	     -7.50567236	     -9.50181972	      0.56496411	    -10.61780970	     65.26053508	     -7.85607593	      1.13901121	      9.12639287	    -18.22319363	     -7.50567236	    -43.34908817	     -1.37471756	     -3.39083769	      3.75236070	     -9.10459997	    -26.69657730	     31.97903430	     90.00000001	      0.00000000	      0.00000000	      7.80309449	     -5.41737547	    -31.02117682	     35.46204833	     90.00000001	      0.00000000	      0.00000000
